<svg width="50" height="50" viewBox="0 0 50 50" fill="none" xmlns="http://www.w3.org/2000/svg">
    <circle cx="25" cy="25" r="25" fill="#33B7BF"/>
    <path d="M4.8211 26.8143C9.7108 21.6274 13.8644 17.877 14.4992 17.877C13.8875 16.3752 15.5161 13.7212 16.5625 13.4519C16.5087 12.2385 17.591 6.66797 18.622 6.1905C19.6531 5.71303 19.4543 10.0375 19.4543 10.9353C19.4543 11.8345 19.1157 13.0683 20.1737 13.0683C21.233 13.0683 23.186 13.0683 24.6761 13.0683C24.6851 13.0683 24.6954 13.0696 24.7043 13.0696C24.7133 13.0696 24.7236 13.0683 24.7326 13.0683C26.2227 13.0683 24.6774 34.4974 24.6774 34.4974C24.6774 34.4974 19.385 31.7986 14.0581 31.7986C10.9368 31.7986 8.14374 32.1509 6.07783 32.4733C-0.721328 33.5343 1.27277 30.5797 4.8211 26.8143Z" fill="#181B39"/>
    <path d="M44.5324 26.8143C39.6427 21.6274 35.4891 17.877 34.8544 17.877C35.466 16.3752 33.8374 13.7212 32.791 13.4519C32.8449 12.2385 31.7625 6.66797 30.7315 6.1905C29.7005 5.71303 29.8993 10.0375 29.8993 10.9353C29.8993 11.8345 30.2378 13.0683 29.1798 13.0683C28.1206 13.0683 26.1675 13.0683 24.6774 13.0683C24.6684 13.0683 24.6582 13.0696 24.6492 13.0696C24.6402 13.0696 24.63 13.0683 24.621 13.0683C23.1309 13.0683 24.6761 34.4974 24.6761 34.4974C24.6761 34.4974 29.9685 31.7986 35.2955 31.7986C38.4168 31.7986 41.2098 32.1509 43.2757 32.4733C50.0762 33.5343 48.0821 30.5797 44.5324 26.8143Z" fill="#181B39"/>
    <path d="M24.9121 40.6244L27.5846 33.2446H21.769L24.4415 40.6244C24.5056 40.8175 24.8492 40.8175 24.9121 40.6244Z" fill="#181B39"/>
    <path d="M18.6605 16.8432C18.8537 16.0473 18.4949 15.2613 17.8592 15.0876C17.2234 14.9139 16.5513 15.4183 16.3581 16.2142C16.1648 17.0102 16.5236 17.7962 17.1594 17.9699C17.7952 18.1436 18.4672 17.6392 18.6605 16.8432Z" fill="white"/>
    <path d="M16.833 20.5949C16.1239 20.5609 15.5237 20.2997 15.1134 19.6522C14.989 19.455 14.8774 19.2428 15.0159 19.0061C15.1698 18.7435 15.4083 18.6415 15.6917 18.6673C15.7917 18.6769 15.8982 18.7054 15.9841 18.7571C16.5689 19.1067 17.219 19.2305 17.8628 19.3693C18.0628 19.4128 18.2949 19.4142 18.3603 19.6726C18.4322 19.9596 18.2129 20.0848 18.0333 20.214C17.673 20.4752 17.2755 20.6099 16.833 20.5949Z" fill="white"/>
    <path d="M32.3997 17.9669C33.0355 17.7932 33.3942 17.0072 33.201 16.2112C33.0077 15.4153 32.3357 14.9109 31.6999 15.0846C31.0641 15.2582 30.7054 16.0443 30.8986 16.8402C31.0918 17.6361 31.7639 18.1406 32.3997 17.9669Z" fill="white"/>
    <path d="M32.7256 20.595C33.4347 20.561 34.0349 20.2998 34.4452 19.6523C34.5696 19.4551 34.6812 19.2429 34.5427 19.0062C34.3888 18.7436 34.1503 18.6416 33.8669 18.6675C33.7668 18.677 33.6604 18.7055 33.5745 18.7572C32.9897 19.1068 32.3396 19.2306 31.6958 19.3694C31.4958 19.4129 31.2637 19.4143 31.1982 19.6727C31.1264 19.9598 31.3457 20.0849 31.5253 20.2141C31.8856 20.4753 32.2831 20.61 32.7256 20.595Z" fill="white"/>
</svg>
