<?xml version="1.0" standalone="no"?>
<!DOCTYPE svg PUBLIC "-//W3C//DTD SVG 20010904//EN"
 "http://www.w3.org/TR/2001/REC-SVG-20010904/DTD/svg10.dtd">
<svg version="1.0" xmlns="http://www.w3.org/2000/svg"
 width="700.000000pt" height="700.000000pt" viewBox="0 0 700.000000 700.000000"
 preserveAspectRatio="xMidYMid meet">
<metadata>
Created by potrace 1.14, written by Peter Selinger 2001-2017
</metadata>
<g transform="translate(0.000000,700.000000) scale(0.100000,-0.100000)"
fill="#000000" stroke="none">
<path d="M2587 6120 c-37 -29 -99 -161 -140 -300 -62 -205 -127 -540 -127
-654 0 -43 -2 -47 -37 -65 -158 -81 -318 -431 -264 -574 8 -21 6 -26 -22 -39
-49 -23 -196 -141 -357 -284 -308 -274 -979 -956 -1186 -1204 -250 -299 -298
-467 -155 -540 97 -49 261 -50 572 -5 418 61 712 86 1039 87 360 2 612 -38
1011 -163 l127 -39 188 -520 c130 -359 193 -522 205 -525 9 -3 23 -3 30 0 8 3
78 180 158 403 79 218 164 452 188 519 l45 121 126 40 c216 68 368 105 564
137 329 53 843 33 1450 -55 345 -50 510 -50 606 -1 64 33 77 55 77 130 -1 58
-6 76 -43 146 -73 140 -176 265 -477 585 -491 520 -1067 1061 -1236 1158 -38
23 -45 30 -38 47 12 32 10 115 -6 182 -37 158 -159 344 -257 394 -36 18 -38
22 -38 67 0 26 -9 102 -20 170 -60 367 -158 686 -236 768 -60 64 -101 33 -131
-101 -14 -67 -17 -135 -18 -425 0 -248 -4 -351 -13 -366 -6 -12 -26 -27 -43
-33 -45 -15 -1303 -15 -1348 0 -55 19 -56 24 -56 389 -1 357 -8 440 -48 520
-26 52 -51 61 -90 30z m-47 -1253 c56 -37 75 -81 75 -168 0 -67 -4 -81 -30
-125 -93 -149 -273 -111 -301 63 -14 88 39 202 108 236 48 24 109 21 148 -6z
m1993 12 c130 -67 165 -268 62 -358 -41 -36 -72 -46 -121 -38 -113 19 -188
185 -139 305 18 42 51 80 80 92 29 13 93 12 118 -1z m-2263 -520 c36 -17 112
-42 170 -56 58 -14 111 -30 118 -35 6 -6 12 -23 12 -39 0 -22 -9 -34 -42 -57
-63 -43 -110 -55 -192 -50 -103 7 -185 57 -227 141 -18 33 -19 43 -8 68 12 32
51 58 84 59 11 0 49 -14 85 -31z m2529 17 c15 -8 33 -27 39 -41 26 -57 -60
-167 -156 -199 -57 -20 -162 -21 -207 -2 -62 26 -105 66 -105 96 0 15 6 32 13
38 6 6 58 21 113 35 56 14 132 39 170 56 79 35 94 37 133 17z"/>
</g>
</svg>
