<?xml version="1.0" encoding="UTF-8"?>
<svg class="cymatic-logo" version="1.1" viewBox="180 0 577.62 198.43" xmlns="http://www.w3.org/2000/svg">
<path d="m265.87 71.1c-2.85 11.29-11.28 19.65-26.39 19.65-19.75 0-29.58-14.78-29.58-33.26 0-17.77 9.9-33.8 29.98-33.8 15.77 0 24.14 9.05 26 19.96h-9.69c-2.15-6.72-6.63-12.01-16.68-12.01-13.88 0-19.5 12.6-19.5 25.55 0 12.48 5.27 25.62 19.88 25.62 9.9 0 14.03-5.84 16.25-11.71h9.73z"/>
<path d="m292.84 89.92v-23.79c0-0.65-0.15-1.31-0.46-1.8l-22.9-39.7h11.05c5.77 10.46 14.67 26.58 17.71 32.58 2.82-5.87 12.07-22.23 18.01-32.58h10.3l-23.55 39.78c-0.23 0.42-0.41 0.75-0.41 1.75v23.75h-9.75z"/>
<path d="m391.04 62.72c0-11.94 0.14-24.29 0.42-31.26h-0.37c-2.85 11.1-12.65 37.93-19.9 58.45h-8.57c-5.49-16.93-15.63-47.08-18.55-58.58h-0.32c0.51 7.56 0.74 21.86 0.74 33.05v25.53h-9.05v-65.28h14.45c6.97 19.65 15.4 44.9 17.59 53.48h0.15c1.55-6.72 11.59-34.31 18.83-53.48h14.01v65.28h-9.43v-27.19z"/>
<path d="m425.39 71.18-6.66 18.73h-9.61l23.04-65.28h12l24.04 65.28h-10.29l-6.89-18.73h-25.63zm23.26-8.2c-5.92-16.52-9.25-25.58-10.7-30.72h-0.09c-1.6 5.71-5.31 16.59-10.08 30.72h20.87z"/>
<path d="M483.34,32.83h-20.85v-8.2h51.45v8.2h-20.86v57.08h-9.74V32.83z"/>
<path d="m535.22 24.63v65.28h-9.69v-65.28h9.69z"/>
<path d="m605.75 71.1c-2.84 11.29-11.28 19.65-26.39 19.65-19.75 0-29.58-14.78-29.58-33.26 0-17.77 9.9-33.8 29.98-33.8 15.77 0 24.14 9.05 26 19.96h-9.69c-2.15-6.72-6.63-12.01-16.68-12.01-13.88 0-19.5 12.6-19.5 25.55 0 12.48 5.27 25.62 19.88 25.62 9.9 0 14.03-5.84 16.25-11.71h9.73z"/>
<path d="m218.71 152.56c1.72 7.59 6.95 11.56 16.05 11.56 9.68 0 13.56-4.44 13.56-10.34 0-6.31-3.2-9.72-15.93-12.78-15.83-3.82-20.99-9.31-20.99-18.42 0-10.01 7.41-17.88 22.15-17.88 15.88 0 22.38 9.05 23.27 17.81h-9.83c-1.08-5.47-4.44-10.16-13.76-10.16-7.53 0-11.8 3.35-11.8 9.27 0 5.83 3.51 8.13 14.78 10.84 18.69 4.52 22.14 11.73 22.14 20.27 0 10.79-8.03 19.03-24.24 19.03-16.45 0-23.83-8.82-25.22-19.19h9.82z"/>
<path d="m281.56 170.92v-23.78c0-0.65-0.15-1.31-0.46-1.8l-22.9-39.7h11.05c5.77 10.46 14.67 26.58 17.71 32.58 2.82-5.87 12.07-22.23 18.01-32.58h10.3l-23.55 39.78c-0.23 0.42-0.41 0.75-0.41 1.75v23.75h-9.75z"/>
<path d="m324.18 152.56c1.72 7.59 6.95 11.56 16.05 11.56 9.68 0 13.56-4.44 13.56-10.34 0-6.31-3.2-9.72-15.93-12.78-15.83-3.82-20.99-9.31-20.99-18.42 0-10.01 7.41-17.88 22.15-17.88 15.88 0 22.38 9.05 23.27 17.81h-9.83c-1.08-5.47-4.44-10.16-13.76-10.16-7.53 0-11.8 3.35-11.8 9.27 0 5.83 3.51 8.13 14.78 10.84 18.69 4.52 22.14 11.73 22.14 20.27 0 10.79-8.03 19.03-24.24 19.03-16.45 0-23.83-8.82-25.22-19.19h9.82z"/>
<path d="m386.57 113.83h-20.85v-8.2h51.45v8.2h-20.86v57.08h-9.74v-57.08z"/>
<path d="m466.94 140.85h-32.23v21.87h35.43l-1.22 8.2h-43.68v-65.28h43.23v8.2h-33.75v18.81h32.23v8.2z"/>
<path d="m536.99 143.72c0-11.94 0.14-24.29 0.42-31.26h-0.37c-2.84 11.1-12.65 37.93-19.9 58.45h-8.57c-5.49-16.93-15.63-47.08-18.55-58.58h-0.32c0.51 7.56 0.74 21.86 0.74 33.05v25.53h-9.05v-65.28h14.45c6.97 19.65 15.4 44.9 17.59 53.48h0.14c1.55-6.72 11.59-34.31 18.83-53.48h14.01v65.28h-9.43v-27.19z"/>
<path d="m565.92 152.56c1.72 7.59 6.95 11.56 16.05 11.56 9.68 0 13.56-4.44 13.56-10.34 0-6.31-3.2-9.72-15.93-12.78-15.83-3.82-21-9.31-21-18.42 0-10.01 7.41-17.88 22.15-17.88 15.88 0 22.38 9.05 23.27 17.81h-9.83c-1.08-5.47-4.44-10.16-13.76-10.16-7.53 0-11.8 3.35-11.8 9.27 0 5.83 3.51 8.13 14.78 10.84 18.69 4.52 22.14 11.73 22.14 20.27 0 10.79-8.03 19.03-24.24 19.03-16.45 0-23.83-8.82-25.22-19.19h9.83z"/>
</svg>
